<svg width="241" height="28" viewBox="0 0 241 28" fill="none" xmlns="http://www.w3.org/2000/svg">
<g filter="url(#filter0_d)">
<rect x="14" y="10" width="73" height="2" rx="1" fill="#C4C4C4"/>
</g>
<g filter="url(#filter1_d)">
<rect x="87" y="10" width="72" height="2" rx="1" fill="#C4C4C4"/>
</g>
<g filter="url(#filter2_d)">
<rect x="159" y="10" width="72" height="2" rx="1" fill="#C4C4C4"/>
</g>
<g filter="url(#filter3_d)">
<circle cx="14" cy="10" r="10" fill="white"/>
<circle cx="14" cy="10" r="9" stroke="#7F71D9" stroke-width="2"/>
</g>
<circle cx="87" cy="10" r="9" fill="white" stroke="#C4C4C4" stroke-width="2"/>
<circle cx="159" cy="10" r="9" fill="white" stroke="#C4C4C4" stroke-width="2"/>
<circle cx="231" cy="10" r="9" fill="white" stroke="#C4C4C4" stroke-width="2"/>
<g filter="url(#filter4_d)">
<path d="M14 6V14" stroke="#7F71D9" stroke-width="2" stroke-linecap="round"/>
<path d="M18 9.97778L9.99982 10.0221" stroke="#7F71D9" stroke-width="2" stroke-linecap="round"/>
</g>
<path d="M87 14V10M87 6H87.01" stroke="#C4C4C4" stroke-width="2" stroke-linecap="round" stroke-linejoin="round"/>
<path d="M159 5V16M161.5 7H157.75C157.286 7 156.841 7.18437 156.513 7.51256C156.184 7.84075 156 8.28587 156 8.75C156 9.21413 156.184 9.65925 156.513 9.98744C156.841 10.3156 157.286 10.5 157.75 10.5H160.25C160.714 10.5 161.159 10.6844 161.487 11.0126C161.816 11.3408 162 11.7859 162 12.25C162 12.7141 161.816 13.1592 161.487 13.4874C161.159 13.8156 160.714 14 160.25 14H156" stroke="#C4C4C4" stroke-width="1.5" stroke-linecap="round" stroke-linejoin="round"/>
<path d="M235 7L228.812 13L226 10.2727" stroke="#C4C4C4" stroke-width="1.5" stroke-linecap="round" stroke-linejoin="round"/>
<defs>
<filter id="filter0_d" x="10" y="10" width="81" height="10" filterUnits="userSpaceOnUse" color-interpolation-filters="sRGB">
<feFlood flood-opacity="0" result="BackgroundImageFix"/>
<feColorMatrix in="SourceAlpha" type="matrix" values="0 0 0 0 0 0 0 0 0 0 0 0 0 0 0 0 0 0 127 0" result="hardAlpha"/>
<feOffset dy="4"/>
<feGaussianBlur stdDeviation="2"/>
<feColorMatrix type="matrix" values="0 0 0 0 0.766667 0 0 0 0 0.247122 0 0 0 0 0.0830556 0 0 0 0.1 0"/>
<feBlend mode="normal" in2="BackgroundImageFix" result="effect1_dropShadow"/>
<feBlend mode="normal" in="SourceGraphic" in2="effect1_dropShadow" result="shape"/>
</filter>
<filter id="filter1_d" x="83" y="10" width="80" height="10" filterUnits="userSpaceOnUse" color-interpolation-filters="sRGB">
<feFlood flood-opacity="0" result="BackgroundImageFix"/>
<feColorMatrix in="SourceAlpha" type="matrix" values="0 0 0 0 0 0 0 0 0 0 0 0 0 0 0 0 0 0 127 0" result="hardAlpha"/>
<feOffset dy="4"/>
<feGaussianBlur stdDeviation="2"/>
<feColorMatrix type="matrix" values="0 0 0 0 0.766667 0 0 0 0 0.247122 0 0 0 0 0.0830556 0 0 0 0.1 0"/>
<feBlend mode="normal" in2="BackgroundImageFix" result="effect1_dropShadow"/>
<feBlend mode="normal" in="SourceGraphic" in2="effect1_dropShadow" result="shape"/>
</filter>
<filter id="filter2_d" x="155" y="10" width="80" height="10" filterUnits="userSpaceOnUse" color-interpolation-filters="sRGB">
<feFlood flood-opacity="0" result="BackgroundImageFix"/>
<feColorMatrix in="SourceAlpha" type="matrix" values="0 0 0 0 0 0 0 0 0 0 0 0 0 0 0 0 0 0 127 0" result="hardAlpha"/>
<feOffset dy="4"/>
<feGaussianBlur stdDeviation="2"/>
<feColorMatrix type="matrix" values="0 0 0 0 0.766667 0 0 0 0 0.247122 0 0 0 0 0.0830556 0 0 0 0.1 0"/>
<feBlend mode="normal" in2="BackgroundImageFix" result="effect1_dropShadow"/>
<feBlend mode="normal" in="SourceGraphic" in2="effect1_dropShadow" result="shape"/>
</filter>
<filter id="filter3_d" x="0" y="0" width="28" height="28" filterUnits="userSpaceOnUse" color-interpolation-filters="sRGB">
<feFlood flood-opacity="0" result="BackgroundImageFix"/>
<feColorMatrix in="SourceAlpha" type="matrix" values="0 0 0 0 0 0 0 0 0 0 0 0 0 0 0 0 0 0 127 0" result="hardAlpha"/>
<feOffset dy="4"/>
<feGaussianBlur stdDeviation="2"/>
<feColorMatrix type="matrix" values="0 0 0 0 0.498039 0 0 0 0 0.443137 0 0 0 0 0.85098 0 0 0 0.16 0"/>
<feBlend mode="normal" in2="BackgroundImageFix" result="effect1_dropShadow"/>
<feBlend mode="normal" in="SourceGraphic" in2="effect1_dropShadow" result="shape"/>
</filter>
<filter id="filter4_d" x="4.99976" y="5" width="18.0002" height="18" filterUnits="userSpaceOnUse" color-interpolation-filters="sRGB">
<feFlood flood-opacity="0" result="BackgroundImageFix"/>
<feColorMatrix in="SourceAlpha" type="matrix" values="0 0 0 0 0 0 0 0 0 0 0 0 0 0 0 0 0 0 127 0" result="hardAlpha"/>
<feOffset dy="4"/>
<feGaussianBlur stdDeviation="2"/>
<feComposite in2="hardAlpha" operator="out"/>
<feColorMatrix type="matrix" values="0 0 0 0 0 0 0 0 0 0 0 0 0 0 0 0 0 0 0.25 0"/>
<feBlend mode="normal" in2="BackgroundImageFix" result="effect1_dropShadow"/>
<feBlend mode="normal" in="SourceGraphic" in2="effect1_dropShadow" result="shape"/>
</filter>
</defs>
</svg>
