<svg width="23" height="24" viewBox="0 0 23 24" fill="none" xmlns="http://www.w3.org/2000/svg">
<path d="M16.2392 6.60205L15.9475 16.1758C15.9118 17.3486 15.4116 18.4592 14.557 19.2633C13.7024 20.0674 12.5634 20.499 11.3905 20.4633C10.2177 20.4275 9.10707 19.9273 8.30301 19.0727C7.49895 18.2181 7.06731 17.0791 7.10304 15.9063L7.39474 6.33257C7.41856 5.55067 7.75202 4.81026 8.32175 4.27421C8.89149 3.73817 9.65083 3.45041 10.4327 3.47423C11.2146 3.49806 11.955 3.83151 12.4911 4.40125C13.0271 4.97098 13.3149 5.73032 13.2911 6.51222L12.994 16.091C12.9821 16.4819 12.8154 16.8521 12.5305 17.1202C12.2456 17.3882 11.866 17.5321 11.475 17.5202C11.0841 17.5082 10.7138 17.3415 10.4458 17.0566C10.1778 16.7718 10.0339 16.3921 10.0458 16.0012L10.3204 7.16204" stroke="#666666" stroke-linecap="round" stroke-linejoin="round"/>
</svg>
